<?xml version="1.0" standalone="no"?>
<!DOCTYPE svg PUBLIC "-//W3C//DTD SVG 20010904//EN"
 "http://www.w3.org/TR/2001/REC-SVG-20010904/DTD/svg10.dtd">
<svg version="1.0" xmlns="http://www.w3.org/2000/svg"
 width="260.000000pt" height="260.000000pt" viewBox="0 0 260.000000 260.000000"
 preserveAspectRatio="xMidYMid meet">
<metadata>
Created by potrace 1.11, written by Peter Selinger 2001-2013
</metadata>
<g transform="translate(0.000000,260.000000) scale(0.100000,-0.100000)"
fill="#000000" stroke="none">
<path d="M680 1785 c-173 -39 -327 -161 -399 -317 -49 -105 -65 -184 -59 -296
11 -181 98 -282 246 -282 76 0 165 43 222 107 l40 46 0 -47 c0 -36 5 -52 25
-71 22 -23 32 -25 115 -25 49 0 90 3 90 8 0 4 23 195 52 425 44 358 50 420 37
427 -51 32 -272 47 -369 25z m103 -191 c-22 -207 -41 -291 -87 -382 -33 -66
-87 -112 -130 -112 -42 0 -62 23 -77 88 -15 62 -1 172 30 244 38 88 121 161
203 177 54 11 63 9 61 -15z"/>
<path d="M1724 1784 c-37 -8 -50 -33 -117 -214 -36 -96 -84 -224 -108 -285
l-44 -110 -3 50 c-19 374 -33 531 -49 543 -25 18 -243 17 -243 -2 0 -14 125
-787 136 -838 l6 -28 108 0 c102 0 110 1 127 24 11 13 61 134 113 270 51 135
96 243 99 240 3 -3 22 -118 42 -255 20 -137 42 -256 49 -264 11 -13 34 -15
123 -13 l110 3 177 435 177 435 -111 3 c-95 2 -112 0 -128 -15 -10 -10 -57
-143 -105 -297 -66 -211 -89 -272 -95 -255 -3 13 -21 139 -39 279 -37 301 -34
293 -136 296 -38 1 -78 0 -89 -2z"/>
</g>
</svg>
